<svg id="visual" viewBox="0 0 900 600" width="900" height="600" xmlns="http://www.w3.org/2000/svg" xmlns:xlink="http://www.w3.org/1999/xlink" version="1.1"><rect x="0" y="0" width="900" height="600" fill="#003554"></rect><g transform="translate(89.27598659213223 -6.157778567672835)"><path d="M177.6 -228.3C221.9 -174.5 243.9 -110.7 258.6 -43.2C273.4 24.2 280.9 95.4 264.9 181C248.9 266.7 209.5 366.9 146.4 380.2C83.4 393.6 -3.2 320.1 -107.3 286C-211.4 252 -333 257.2 -395.7 202.4C-458.4 147.6 -462.1 32.7 -440.4 -75.5C-418.7 -183.7 -371.7 -285.3 -294 -333.3C-216.4 -381.2 -108.2 -375.6 -20.8 -350.8C66.6 -326.1 133.3 -282.2 177.6 -228.3" fill="#006494"></path></g></svg>