<svg id="visual" viewBox="0 0 900 600" width="900" height="600" xmlns="http://www.w3.org/2000/svg" xmlns:xlink="http://www.w3.org/1999/xlink" version="1.1"><rect x="0" y="0" width="900" height="600" fill="#001220"></rect><defs><linearGradient id="grad1_0" x1="33.3%" y1="0%" x2="100%" y2="100%"><stop offset="20%" stop-color="#003554" stop-opacity="1"></stop><stop offset="80%" stop-color="#003554" stop-opacity="1"></stop></linearGradient></defs><defs><linearGradient id="grad1_1" x1="33.3%" y1="0%" x2="100%" y2="100%"><stop offset="20%" stop-color="#003554" stop-opacity="1"></stop><stop offset="80%" stop-color="#022c46" stop-opacity="1"></stop></linearGradient></defs><defs><linearGradient id="grad1_2" x1="33.3%" y1="0%" x2="100%" y2="100%"><stop offset="20%" stop-color="#032339" stop-opacity="1"></stop><stop offset="80%" stop-color="#022c46" stop-opacity="1"></stop></linearGradient></defs><defs><linearGradient id="grad1_3" x1="33.3%" y1="0%" x2="100%" y2="100%"><stop offset="20%" stop-color="#032339" stop-opacity="1"></stop><stop offset="80%" stop-color="#031b2c" stop-opacity="1"></stop></linearGradient></defs><defs><linearGradient id="grad1_4" x1="33.3%" y1="0%" x2="100%" y2="100%"><stop offset="20%" stop-color="#001220" stop-opacity="1"></stop><stop offset="80%" stop-color="#031b2c" stop-opacity="1"></stop></linearGradient></defs><defs><linearGradient id="grad2_0" x1="0%" y1="0%" x2="66.7%" y2="100%"><stop offset="20%" stop-color="#003554" stop-opacity="1"></stop><stop offset="80%" stop-color="#003554" stop-opacity="1"></stop></linearGradient></defs><defs><linearGradient id="grad2_1" x1="0%" y1="0%" x2="66.7%" y2="100%"><stop offset="20%" stop-color="#022c46" stop-opacity="1"></stop><stop offset="80%" stop-color="#003554" stop-opacity="1"></stop></linearGradient></defs><defs><linearGradient id="grad2_2" x1="0%" y1="0%" x2="66.7%" y2="100%"><stop offset="20%" stop-color="#022c46" stop-opacity="1"></stop><stop offset="80%" stop-color="#032339" stop-opacity="1"></stop></linearGradient></defs><defs><linearGradient id="grad2_3" x1="0%" y1="0%" x2="66.7%" y2="100%"><stop offset="20%" stop-color="#031b2c" stop-opacity="1"></stop><stop offset="80%" stop-color="#032339" stop-opacity="1"></stop></linearGradient></defs><defs><linearGradient id="grad2_4" x1="0%" y1="0%" x2="66.7%" y2="100%"><stop offset="20%" stop-color="#031b2c" stop-opacity="1"></stop><stop offset="80%" stop-color="#001220" stop-opacity="1"></stop></linearGradient></defs><g transform="translate(900, 0)"><path d="M0 432.7C-83.2 425.7 -166.4 418.7 -216.3 374.7C-266.3 330.7 -283 249.6 -313.5 181C-344 112.4 -388.3 56.2 -432.7 0L0 0Z" fill="#031726"></path><path d="M0 346.1C-66.6 340.6 -133.1 335 -173.1 299.8C-213 264.5 -226.4 199.7 -250.8 144.8C-275.2 89.9 -310.7 45 -346.1 0L0 0Z" fill="#031f33"></path><path d="M0 259.6C-49.9 255.4 -99.8 251.2 -129.8 224.8C-159.8 198.4 -169.8 149.8 -188.1 108.6C-206.4 67.4 -233 33.7 -259.6 0L0 0Z" fill="#032840"></path><path d="M0 173.1C-33.3 170.3 -66.6 167.5 -86.5 149.9C-106.5 132.3 -113.2 99.8 -125.4 72.4C-137.6 45 -155.3 22.5 -173.1 0L0 0Z" fill="#01304d"></path><path d="M0 86.5C-16.6 85.1 -33.3 83.7 -43.3 74.9C-53.3 66.1 -56.6 49.9 -62.7 36.2C-68.8 22.5 -77.7 11.2 -86.5 0L0 0Z" fill="#003554"></path></g><g transform="translate(0, 600)"><path d="M0 -432.7C79.7 -423.7 159.5 -414.7 216.3 -374.7C273.2 -334.7 307.2 -263.6 339.5 -196C371.7 -128.4 402.2 -64.2 432.7 0L0 0Z" fill="#031726"></path><path d="M0 -346.1C63.8 -339 127.6 -331.8 173.1 -299.8C218.6 -267.7 245.8 -210.9 271.6 -156.8C297.4 -102.7 321.8 -51.4 346.1 0L0 0Z" fill="#031f33"></path><path d="M0 -259.6C47.8 -254.2 95.7 -248.8 129.8 -224.8C163.9 -200.8 184.3 -158.2 203.7 -117.6C223 -77 241.3 -38.5 259.6 0L0 0Z" fill="#032840"></path><path d="M0 -173.1C31.9 -169.5 63.8 -165.9 86.5 -149.9C109.3 -133.9 122.9 -105.4 135.8 -78.4C148.7 -51.4 160.9 -25.7 173.1 0L0 0Z" fill="#01304d"></path><path d="M0 -86.5C15.9 -84.7 31.9 -82.9 43.3 -74.9C54.6 -66.9 61.4 -52.7 67.9 -39.2C74.3 -25.7 80.4 -12.8 86.5 0L0 0Z" fill="#003554"></path></g></svg>