<svg id="visual" viewBox="0 0 900 600" width="900" height="600" xmlns="http://www.w3.org/2000/svg" xmlns:xlink="http://www.w3.org/1999/xlink" version="1.1"><rect x="0" y="0" width="900" height="600" fill="#003554"></rect><path d="M0 310L18.8 313.8C37.7 317.7 75.3 325.3 112.8 343.5C150.3 361.7 187.7 390.3 225.2 396.7C262.7 403 300.3 387 337.8 381C375.3 375 412.7 379 450.2 379.8C487.7 380.7 525.3 378.3 562.8 385.3C600.3 392.3 637.7 408.7 675.2 394.7C712.7 380.7 750.3 336.3 787.8 314.2C825.3 292 862.7 292 881.3 292L900 292L900 601L881.3 601C862.7 601 825.3 601 787.8 601C750.3 601 712.7 601 675.2 601C637.7 601 600.3 601 562.8 601C525.3 601 487.7 601 450.2 601C412.7 601 375.3 601 337.8 601C300.3 601 262.7 601 225.2 601C187.7 601 150.3 601 112.8 601C75.3 601 37.7 601 18.8 601L0 601Z" fill="#00a6fb"></path><path d="M0 402L18.8 397.5C37.7 393 75.3 384 112.8 392.3C150.3 400.7 187.7 426.3 225.2 438.8C262.7 451.3 300.3 450.7 337.8 444.8C375.3 439 412.7 428 450.2 419.3C487.7 410.7 525.3 404.3 562.8 398.5C600.3 392.7 637.7 387.3 675.2 389C712.7 390.7 750.3 399.3 787.8 404.2C825.3 409 862.7 410 881.3 410.5L900 411L900 601L881.3 601C862.7 601 825.3 601 787.8 601C750.3 601 712.7 601 675.2 601C637.7 601 600.3 601 562.8 601C525.3 601 487.7 601 450.2 601C412.7 601 375.3 601 337.8 601C300.3 601 262.7 601 225.2 601C187.7 601 150.3 601 112.8 601C75.3 601 37.7 601 18.8 601L0 601Z" fill="#029ff1"></path><path d="M0 426L18.8 425.5C37.7 425 75.3 424 112.8 430.3C150.3 436.7 187.7 450.3 225.2 461.5C262.7 472.7 300.3 481.3 337.8 484.8C375.3 488.3 412.7 486.7 450.2 485C487.7 483.3 525.3 481.7 562.8 477.2C600.3 472.7 637.7 465.3 675.2 457.3C712.7 449.3 750.3 440.7 787.8 445.2C825.3 449.7 862.7 467.3 881.3 476.2L900 485L900 601L881.3 601C862.7 601 825.3 601 787.8 601C750.3 601 712.7 601 675.2 601C637.7 601 600.3 601 562.8 601C525.3 601 487.7 601 450.2 601C412.7 601 375.3 601 337.8 601C300.3 601 262.7 601 225.2 601C187.7 601 150.3 601 112.8 601C75.3 601 37.7 601 18.8 601L0 601Z" fill="#0398e7"></path><path d="M0 478L18.8 473C37.7 468 75.3 458 112.8 462.5C150.3 467 187.7 486 225.2 497.5C262.7 509 300.3 513 337.8 504C375.3 495 412.7 473 450.2 472C487.7 471 525.3 491 562.8 487.3C600.3 483.7 637.7 456.3 675.2 450.5C712.7 444.7 750.3 460.3 787.8 469.5C825.3 478.7 862.7 481.3 881.3 482.7L900 484L900 601L881.3 601C862.7 601 825.3 601 787.8 601C750.3 601 712.7 601 675.2 601C637.7 601 600.3 601 562.8 601C525.3 601 487.7 601 450.2 601C412.7 601 375.3 601 337.8 601C300.3 601 262.7 601 225.2 601C187.7 601 150.3 601 112.8 601C75.3 601 37.7 601 18.8 601L0 601Z" fill="#0490dd"></path><path d="M0 539L18.8 531.7C37.7 524.3 75.3 509.7 112.8 500.5C150.3 491.3 187.7 487.7 225.2 491.3C262.7 495 300.3 506 337.8 512.5C375.3 519 412.7 521 450.2 525.7C487.7 530.3 525.3 537.7 562.8 542.2C600.3 546.7 637.7 548.3 675.2 548.8C712.7 549.3 750.3 548.7 787.8 544.2C825.3 539.7 862.7 531.3 881.3 527.2L900 523L900 601L881.3 601C862.7 601 825.3 601 787.8 601C750.3 601 712.7 601 675.2 601C637.7 601 600.3 601 562.8 601C525.3 601 487.7 601 450.2 601C412.7 601 375.3 601 337.8 601C300.3 601 262.7 601 225.2 601C187.7 601 150.3 601 112.8 601C75.3 601 37.7 601 18.8 601L0 601Z" fill="#0589d4"></path><path d="M0 567L18.8 567C37.7 567 75.3 567 112.8 563.2C150.3 559.3 187.7 551.7 225.2 544.8C262.7 538 300.3 532 337.8 536.2C375.3 540.3 412.7 554.7 450.2 563.3C487.7 572 525.3 575 562.8 569.5C600.3 564 637.7 550 675.2 546.7C712.7 543.3 750.3 550.7 787.8 554.5C825.3 558.3 862.7 558.7 881.3 558.8L900 559L900 601L881.3 601C862.7 601 825.3 601 787.8 601C750.3 601 712.7 601 675.2 601C637.7 601 600.3 601 562.8 601C525.3 601 487.7 601 450.2 601C412.7 601 375.3 601 337.8 601C300.3 601 262.7 601 225.2 601C187.7 601 150.3 601 112.8 601C75.3 601 37.7 601 18.8 601L0 601Z" fill="#0582ca"></path></svg>