<svg id="visual" viewBox="0 0 900 600" width="900" height="600" xmlns="http://www.w3.org/2000/svg" xmlns:xlink="http://www.w3.org/1999/xlink" version="1.1"><path d="M0 169L13.7 168C27.3 167 54.7 165 82 164C109.3 163 136.7 163 163.8 168C191 173 218 183 245.2 175C272.3 167 299.7 141 327 129C354.3 117 381.7 119 409 113C436.3 107 463.7 93 491 87C518.3 81 545.7 83 573 87C600.3 91 627.7 97 654.8 130C682 163 709 223 736.2 241C763.3 259 790.7 235 818 221C845.3 207 872.7 203 886.3 201L900 199L900 0L886.3 0C872.7 0 845.3 0 818 0C790.7 0 763.3 0 736.2 0C709 0 682 0 654.8 0C627.7 0 600.3 0 573 0C545.7 0 518.3 0 491 0C463.7 0 436.3 0 409 0C381.7 0 354.3 0 327 0C299.7 0 272.3 0 245.2 0C218 0 191 0 163.8 0C136.7 0 109.3 0 82 0C54.7 0 27.3 0 13.7 0L0 0Z" fill="#6198ff"></path><path d="M0 241L13.7 238C27.3 235 54.7 229 82 227C109.3 225 136.7 227 163.8 237C191 247 218 265 245.2 262C272.3 259 299.7 235 327 222C354.3 209 381.7 207 409 195C436.3 183 463.7 161 491 147C518.3 133 545.7 127 573 132C600.3 137 627.7 153 654.8 186C682 219 709 269 736.2 292C763.3 315 790.7 311 818 303C845.3 295 872.7 283 886.3 277L900 271L900 197L886.3 199C872.7 201 845.3 205 818 219C790.7 233 763.3 257 736.2 239C709 221 682 161 654.8 128C627.7 95 600.3 89 573 85C545.7 81 518.3 79 491 85C463.7 91 436.3 105 409 111C381.7 117 354.3 115 327 127C299.7 139 272.3 165 245.2 173C218 181 191 171 163.8 166C136.7 161 109.3 161 82 162C54.7 163 27.3 165 13.7 166L0 167Z" fill="#3c80ff"></path><path d="M0 361L13.7 358C27.3 355 54.7 349 82 348C109.3 347 136.7 351 163.8 357C191 363 218 371 245.2 363C272.3 355 299.7 331 327 311C354.3 291 381.7 275 409 261C436.3 247 463.7 235 491 229C518.3 223 545.7 223 573 224C600.3 225 627.7 227 654.8 256C682 285 709 341 736.2 365C763.3 389 790.7 381 818 380C845.3 379 872.7 385 886.3 388L900 391L900 269L886.3 275C872.7 281 845.3 293 818 301C790.7 309 763.3 313 736.2 290C709 267 682 217 654.8 184C627.7 151 600.3 135 573 130C545.7 125 518.3 131 491 145C463.7 159 436.3 181 409 193C381.7 205 354.3 207 327 220C299.7 233 272.3 257 245.2 260C218 263 191 245 163.8 235C136.7 225 109.3 223 82 225C54.7 227 27.3 233 13.7 236L0 239Z" fill="#0066ff"></path><path d="M0 469L13.7 480C27.3 491 54.7 513 82 515C109.3 517 136.7 499 163.8 502C191 505 218 529 245.2 537C272.3 545 299.7 537 327 528C354.3 519 381.7 509 409 496C436.3 483 463.7 467 491 459C518.3 451 545.7 451 573 464C600.3 477 627.7 503 654.8 513C682 523 709 517 736.2 508C763.3 499 790.7 487 818 489C845.3 491 872.7 507 886.3 515L900 523L900 389L886.3 386C872.7 383 845.3 377 818 378C790.7 379 763.3 387 736.2 363C709 339 682 283 654.8 254C627.7 225 600.3 223 573 222C545.7 221 518.3 221 491 227C463.7 233 436.3 245 409 259C381.7 273 354.3 289 327 309C299.7 329 272.3 353 245.2 361C218 369 191 361 163.8 355C136.7 349 109.3 345 82 346C54.7 347 27.3 353 13.7 356L0 359Z" fill="#0059dd"></path><path d="M0 601L13.7 601C27.3 601 54.7 601 82 601C109.3 601 136.7 601 163.8 601C191 601 218 601 245.2 601C272.3 601 299.7 601 327 601C354.3 601 381.7 601 409 601C436.3 601 463.7 601 491 601C518.3 601 545.7 601 573 601C600.3 601 627.7 601 654.8 601C682 601 709 601 736.2 601C763.3 601 790.7 601 818 601C845.3 601 872.7 601 886.3 601L900 601L900 521L886.3 513C872.7 505 845.3 489 818 487C790.7 485 763.3 497 736.2 506C709 515 682 521 654.8 511C627.7 501 600.3 475 573 462C545.7 449 518.3 449 491 457C463.7 465 436.3 481 409 494C381.7 507 354.3 517 327 526C299.7 535 272.3 543 245.2 535C218 527 191 503 163.8 500C136.7 497 109.3 515 82 513C54.7 511 27.3 489 13.7 478L0 467Z" fill="#004cbb"></path></svg>