<svg id="visual" viewBox="0 0 900 600" width="900" height="600" xmlns="http://www.w3.org/2000/svg" xmlns:xlink="http://www.w3.org/1999/xlink" version="1.1"><rect x="0" y="0" width="900" height="600" fill="#051923"></rect><path d="M501 600L488 583.3C475 566.7 449 533.3 466.8 500C484.7 466.7 546.3 433.3 559.8 400C573.3 366.7 538.7 333.3 525.7 300C512.7 266.7 521.3 233.3 505.7 200C490 166.7 450 133.3 453.7 100C457.3 66.7 504.7 33.3 528.3 16.7L552 0L900 0L900 16.7C900 33.3 900 66.7 900 100C900 133.3 900 166.7 900 200C900 233.3 900 266.7 900 300C900 333.3 900 366.7 900 400C900 433.3 900 466.7 900 500C900 533.3 900 566.7 900 583.3L900 600Z" fill="#003554" stroke-linecap="round" stroke-linejoin="miter"></path></svg>